<svg id="Capa_1" data-name="Capa 1" xmlns="http://www.w3.org/2000/svg" xmlns:xlink="http://www.w3.org/1999/xlink" viewBox="0 0 803.1 803.1"><defs><style>.cls-1{fill:url(#Degradado_sin_nombre_15);}.cls-2{fill:#fff;}</style><linearGradient id="Degradado_sin_nombre_15" x1="307.27" y1="578.86" x2="495.83" y2="224.24" gradientUnits="userSpaceOnUse"><stop offset="0" stop-color="#ffae2a"/><stop offset="0.22" stop-color="#ff9b31"/><stop offset="0.67" stop-color="#ff6944"/><stop offset="1" stop-color="#ff4253"/></linearGradient></defs><circle class="cls-1" cx="401.55" cy="401.55" r="200.77"/><path class="cls-2" d="M402.72,305.23a11.76,11.76,0,0,0-3.45,8.53v35.06c0,8.45,1.68,15.84,5,22a34.87,34.87,0,0,0,14.15,14.37,42.8,42.8,0,0,0,35.07,2,38.7,38.7,0,0,0,6.29-3.2,11.56,11.56,0,0,0,1.52,1.86,12.38,12.38,0,0,0,17.21-.06,11.93,11.93,0,0,0,3.32-8.48V313.76a11.85,11.85,0,0,0-3.38-8.6h0a12.59,12.59,0,0,0-17.09,0,11.73,11.73,0,0,0-3.51,8.66V354a11.52,11.52,0,0,1-2,6.63,14.68,14.68,0,0,1-5.87,4.95,19.5,19.5,0,0,1-8.81,1.94c-5.63,0-9.95-1.51-13.2-4.61s-4.74-7.64-4.74-14V313.76a12.07,12.07,0,0,0-20.52-8.53Z"/><path class="cls-2" d="M328.89,291.69H355v85.48a12.13,12.13,0,1,0,24.26,0V291.69h25.92a11.67,11.67,0,0,0,8.25-19.81h0a11.4,11.4,0,0,0-8.25-3.3H328.89a11.56,11.56,0,1,0,0,23.11Z"/><path class="cls-2" d="M468.09,453.31a45,45,0,0,0-22.49-5.67,45.66,45.66,0,0,0-22.7,5.67,40.53,40.53,0,0,0-15.77,15.85,49.13,49.13,0,0,0,0,45.48A40.62,40.62,0,0,0,422.9,530.5a48.17,48.17,0,0,0,45.33,0,40.72,40.72,0,0,0,15.69-15.85,48.86,48.86,0,0,0-.08-45.5A41.3,41.3,0,0,0,468.09,453.31Zm-4.65,50.2a18.88,18.88,0,0,1-7.21,7.63,21.87,21.87,0,0,1-21.27,0,19.4,19.4,0,0,1-7.3-7.67,25.9,25.9,0,0,1,0-23.09,19.26,19.26,0,0,1,7.29-7.72,21.87,21.87,0,0,1,21.27,0,18.68,18.68,0,0,1,7.2,7.68A24.83,24.83,0,0,1,466.1,492,24.43,24.43,0,0,1,463.44,503.51Z"/><path class="cls-2" d="M351.82,491.65v31.81a11.92,11.92,0,0,0,3.52,8.61,11.75,11.75,0,0,0,8.47,3.52,12,12,0,0,0,12.12-12.13v-31.8l37.58-58,0-.06a13.47,13.47,0,0,0,2.14-7.2,11.81,11.81,0,0,0-3-8h0a10.49,10.49,0,0,0-8-3.56,12,12,0,0,0-10.54,5.75l-29.91,47.14L334.88,421.2l-.06-.1a16.16,16.16,0,0,0-4.08-4.39,11,11,0,0,0-6.4-1.84,12.3,12.3,0,0,0-8.37,3.21,11.16,11.16,0,0,0-3.76,8.49,13.1,13.1,0,0,0,2.31,7.11Z"/></svg>